<svg width="50" height="50" viewBox="0 0 50 50" fill="none" xmlns="http://www.w3.org/2000/svg">
<path d="M25.15 14.5C19.35 14.5 14.6 19.25 14.6 25.05C14.6 30.85 19.35 35.6 25.15 35.6C30.95 35.6 35.65 30.85 35.65 25.05C35.65 19.25 30.9 14.5 25.15 14.5ZM25.15 33.1C20.7 33.1 17.1 29.5 17.1 25.05C17.1 20.6 20.7 17 25.15 17C29.55 17 33.15 20.6 33.15 25.05C33.15 29.5 29.55 33.1 25.15 33.1Z" fill="white"/>
<path d="M36.9 8.55005C35.8 8.55005 34.8 8.95005 34.05 9.70005C33.3 10.45 32.9 11.45 32.9 12.55C32.9 13.65 33.3 14.65 34.05 15.4C34.8 16.15 35.8 16.55 36.9 16.55C38 16.55 39 16.15 39.75 15.4C40.45 14.7 40.9 13.7 40.95 12.6V12.55C40.95 11.5 40.5 10.5 39.8 9.80005C39.05 9.00005 38 8.55005 36.9 8.55005ZM37.95 13.6C37.4 14.15 36.35 14.15 35.8 13.6C35.5 13.3 35.35 12.95 35.35 12.55C35.35 12.15 35.5 11.75 35.8 11.5C36.1 11.2 36.45 11.05 36.85 11.05C37.25 11.05 37.65 11.2 37.95 11.5C38.2 11.75 38.4 12.15 38.4 12.5C38.4 12.95 38.25 13.35 37.95 13.6Z" fill="white"/>
<path d="M33.9 3.5H16.35C9.30001 3.5 3.60001 9.2 3.60001 16.25V33.85C3.60001 40.9 9.30001 46.6 16.35 46.6H33.95C41 46.6 46.7 40.9 46.7 33.85V16.25C46.65 9.2 40.95 3.5 33.9 3.5ZM44.15 33.85C44.15 39.5 39.55 44.1 33.9 44.1H16.35C10.7 44.1 6.10001 39.5 6.10001 33.85V16.25C6.10001 10.6 10.7 6 16.35 6H33.95C39.6 6 44.2 10.6 44.2 16.25V33.85H44.15Z" fill="white"/>
</svg>
