<svg width="50" height="50" viewBox="0 0 50 50" fill="none" xmlns="http://www.w3.org/2000/svg">
<path d="M44.6575 6.79047C44.3346 6.5115 43.9415 6.32625 43.5209 6.2548C43.1002 6.18335 42.668 6.22843 42.2712 6.38516L6.22485 20.5463C5.75364 20.7314 5.35504 21.0641 5.0887 21.4946C4.82235 21.9252 4.70259 22.4304 4.74733 22.9347C4.79207 23.439 4.9989 23.9152 5.33688 24.2921C5.67486 24.6691 6.12581 24.9264 6.62225 25.0257L16.4063 26.9826V39.0594C16.4014 39.524 16.5369 39.9793 16.795 40.3656C17.0532 40.7519 17.422 41.0513 17.8531 41.2246C18.1419 41.3455 18.4518 41.4082 18.7649 41.409C19.0709 41.4081 19.3736 41.3464 19.6556 41.2275C19.9375 41.1086 20.193 40.9349 20.4073 40.7165L25.9925 35.1313L34.2334 42.3833C34.6581 42.7605 35.2061 42.969 35.7741 42.9696C36.021 42.9694 36.2663 42.9304 36.5012 42.8542C36.8885 42.7314 37.2368 42.5092 37.5115 42.2097C37.7861 41.9102 37.9774 41.5439 38.0662 41.1474L45.4127 9.09016C45.5086 8.67441 45.4889 8.24035 45.3558 7.83499C45.2227 7.42962 44.9812 7.06841 44.6575 6.79047ZM6.30372 22.7966C6.28429 22.6278 6.32234 22.4574 6.41172 22.3129C6.50111 22.1685 6.6366 22.0584 6.7963 22.0004L39.8383 9.01954L17.0063 25.5092L6.92866 23.4937C6.76126 23.4647 6.60851 23.3802 6.49511 23.2537C6.38171 23.1272 6.31428 22.9661 6.30372 22.7966ZM19.3024 39.6117C19.1931 39.721 19.054 39.7954 18.9024 39.8256C18.7509 39.8557 18.5938 39.8402 18.451 39.7811C18.3083 39.722 18.1863 39.6219 18.1004 39.4934C18.0146 39.3649 17.9688 39.2139 17.9688 39.0594V28.0703L24.8172 34.097L19.3024 39.6117ZM43.8897 8.74111L36.5432 40.7983C36.513 40.9302 36.449 41.052 36.3575 41.1517C36.2661 41.2515 36.1502 41.3258 36.0214 41.3673C35.8926 41.4088 35.7553 41.4162 35.6228 41.3887C35.4903 41.3612 35.3672 41.2997 35.2656 41.2103L18.4386 26.4024L43.7634 8.11236C43.83 8.2011 43.8759 8.30363 43.8978 8.41243C43.9196 8.52122 43.9169 8.63353 43.8897 8.74111Z" fill="white"/>
</svg>
