<svg width="50" height="50" viewBox="0 0 50 50" fill="none" xmlns="http://www.w3.org/2000/svg">
<path d="M40 6.66663H10C4.48668 6.66663 0 11.1532 0 16.6666V33.3333C0 38.8465 4.48668 43.3333 10 43.3333H40C45.5133 43.3333 50 38.8465 50 33.3333V16.6666C50 11.1532 45.5133 6.66663 40 6.66663ZM47.7778 33.3333C47.7778 37.6222 44.2889 41.111 40 41.111H10C5.71111 41.111 2.22222 37.6222 2.22222 33.3333V16.6666C2.22222 12.3777 5.71111 8.88885 10 8.88885H40C44.2889 8.88885 47.7778 12.3777 47.7778 16.6666V33.3333ZM17.7778 34.4009L34.0611 25.001L17.7778 15.5988V34.4009ZM20 19.4477L29.6167 25.0011L20 30.5522V19.4477Z" fill="white"/>
</svg>
